<svg xmlns="http://www.w3.org/2000/svg" viewBox="0 0 920.12 233.88"><path d="M337.94,110.51C337.94,49.63,262.29,0,169,0S0,49.63,0,110.51c0,1.58,0,5.92,0,6.48,0,64.59,66.12,116.89,169,116.89,103.47,0,169-52.29,169-116.89Z" fill="#2d3277"/><path d="M331.47,110.46c0,57.39-72.74,103.92-162.47,103.92S6.54,167.85,6.54,110.46,79.28,6.52,169,6.52,331.47,53.06,331.47,110.46" fill="#f7d032"/><path d="M115.06,77.67c-.08.16-1.7,1.84-.66,3.19,2.57,3.27,10.49,5.15,18.5,3.35,4.76-1.07,10.88-5.93,16.79-10.62,6.42-5.1,12.79-10.2,19.18-12.24,6.78-2.16,11.12-1.23,14-.36,3.15.94,6.85,3,12.74,7.44,11.13,8.35,55.83,47.37,63.55,54.12a384.82,384.82,0,0,1,71.43-23c-3.27-20-15.44-38.35-33.93-53.35-25.75,10.82-57.22,16.46-88,1.43-.16-.06-16.81-8-33.24-7.56-24.42.57-35,11.14-46.18,22.32Z" fill="#fff"/><path d="M257.33,126.79c-.52-.47-52.55-46-64.35-54.86-6.81-5.12-10.61-6.42-14.6-6.92a19.83,19.83,0,0,0-6.94.65C166,67.16,158.78,72,152.42,77c-6.59,5.25-12.81,10.2-18.58,11.48-7.36,1.66-16.36-.29-20.46-3.06a9.13,9.13,0,0,1-3.4-3.73c-1.51-3.52,1.28-6.33,1.74-6.8l14.36-15.53c1.67-1.67,3.35-3.33,5.07-5a91.28,91.28,0,0,0-13.08,3c-5.2,1.46-10.21,2.85-15.27,2.85a146.13,146.13,0,0,1-15.59-2.44,232.68,232.68,0,0,1-41.43-15C25.36,58,11.71,77,7.77,97.9c2.93.78,7.66,2.18,9.64,2.62C63.6,110.79,78,121.37,80.61,123.58a15.28,15.28,0,0,1,24,1.41,17.39,17.39,0,0,1,11-3.87,20.62,20.62,0,0,1,6.6,1.15,15.25,15.25,0,0,1,9.3,8.41,15.17,15.17,0,0,1,6.43-1.37,19.32,19.32,0,0,1,7.68,1.7c8.52,3.65,9.84,12,9.07,18.32a15.84,15.84,0,0,1,1.84-.1,18.29,18.29,0,0,1,16.12,27c2.74,1.54,9.75,5,15.9,4.27,4.91-.63,6.78-2.31,7.45-3.25.45-.66.94-1.4.49-2l-13-14.48s-2.14-2-1.43-2.81,2.05.35,3,1.13c6.64,5.54,14.74,13.9,14.74,13.9s.68,1.15,3.67,1.69c2.57.47,7.13.19,10.3-2.4A16.57,16.57,0,0,0,216,170a.69.69,0,0,1-.14.12c3.32-4.27-.38-8.58-.38-8.58l-15.21-17.09s-2.18-2-1.44-2.82,2.07.36,3,1.15c4.83,4,11.63,10.86,18.16,17.25,1.27.93,7,4.48,14.6-.51,4.61-3,5.53-6.73,5.4-9.54a10.88,10.88,0,0,0-3.21-6.34L216,122.71s-2.2-1.87-1.42-2.82c.64-.8,2.06.35,3,1.13,6.63,5.54,24.55,22,24.55,22,.25.17,6.45,4.58,14.11-.29a9.4,9.4,0,0,0,4.63-7.45,11,11,0,0,0-3.49-8.47" fill="#fff"/><path d="M156.5,153.28c-3.22,0-6.74,1.88-7.2,1.6-.27-.17.19-1.46.5-2.21s4.55-13.51-5.8-17.95c-7.91-3.4-12.76.42-14.43,2.16-.42.45-.62.41-.67-.17-.16-2.3-1.18-8.52-8-10.6-9.75-3-16,3.82-17.63,6.28A11.31,11.31,0,1,0,99.88,142c.06.07.09.17.06.39-.48,2.8-1.35,13,9.31,17.14,4.28,1.65,7.92.43,10.93-1.7.9-.63,1-.36.92.49-.39,2.62.1,8.22,8,11.42,6,2.43,9.53-.06,11.84-2.21,1-.92,1.29-.77,1.35.66a14.26,14.26,0,1,0,14.24-14.91" fill="#fff"/><path d="M156.5,180.78a13.15,13.15,0,0,1-13.21-12.63c0-.61-.08-2.22-1.44-2.22a2.52,2.52,0,0,0-1.61.84,9.29,9.29,0,0,1-6.49,2.94,11.38,11.38,0,0,1-4.28-.93c-7.54-3.05-7.64-8.23-7.33-10.31a1.9,1.9,0,0,0-.29-1.59l-.45-.41h-.48a2.28,2.28,0,0,0-1.31.53,11,11,0,0,1-6.4,2.28,9.74,9.74,0,0,1-3.57-.71c-9.93-3.86-9.15-13.23-8.67-16a1.36,1.36,0,0,0-.42-1.31l-.71-.58-.65.63a10.32,10.32,0,1,1,3-8.73l.36,2.77,1.52-2.35c.17-.27,4.34-6.57,12-6.56a15.07,15.07,0,0,1,4.47.7c6.11,1.86,7.14,7.4,7.3,9.71.12,1.34,1.07,1.4,1.26,1.4a1.68,1.68,0,0,0,1.19-.62,10.41,10.41,0,0,1,7.59-3.2,14.57,14.57,0,0,1,5.68,1.28c9.71,4.17,5.31,16.5,5.26,16.63-.84,2-.87,2.94-.08,3.46l.37.19h.29a7.37,7.37,0,0,0,1.88-.49,16.35,16.35,0,0,1,5.17-1.14h0a13.24,13.24,0,1,1,0,26.47m102.85-59.44c-16-14-53.08-46.2-63.11-53.72C190.5,63.3,186.6,61,183.16,60a21.74,21.74,0,0,0-6.41-1,27.07,27.07,0,0,0-8.17,1.36c-6.48,2.06-12.93,7.19-19.18,12.15l-.32.26c-5.82,4.63-11.84,9.42-16.39,10.44a28.16,28.16,0,0,1-6.07.67c-5.09,0-9.68-1.48-11.4-3.67-.28-.36-.1-1,.57-1.79l.08-.11L130,63.12c11-11,21.47-21.47,45.48-22l1.2,0c14.94,0,29.89,6.7,31.56,7.48a98,98,0,0,0,43,10.32c15.16,0,30.8-3.75,47.24-11.32q-2.76-2.31-5.72-4.52c-14.43,6.26-28.2,9.42-41.48,9.41A91.42,91.42,0,0,1,211,42.77c-.69-.33-17.2-8.11-34.36-8.12l-1.35,0c-20.17.47-31.54,7.63-39.18,13.91-7.43.18-13.84,2-19.55,3.56-5.08,1.42-9.47,2.65-13.77,2.64-1.76,0-4.94-.16-5.22-.17-4.93-.15-29.78-6.24-49.53-13.72q-3,2.14-5.84,4.41C62.87,53.76,88,60.3,95.91,60.81c2.2.15,4.56.4,6.9.41,5.25,0,10.48-1.47,15.54-2.9,3-.84,6.3-1.75,9.78-2.41-.93.9-1.86,1.83-2.79,2.75L111,74.17c-1.12,1.13-3.57,4.17-2,7.91a10,10,0,0,0,3.77,4.18c3.42,2.3,9.53,3.86,15.21,3.86a27.3,27.3,0,0,0,6.07-.64c6-1.34,12.3-6.36,19-11.66,5.32-4.23,12.87-9.59,18.66-11.17a21.26,21.26,0,0,1,5.19-.71c.48,0,.93,0,1.34.07,3.83.49,7.52,1.79,14.12,6.74,11.76,8.84,63.79,54.36,64.31,54.81a9.94,9.94,0,0,1,3.12,7.65,8.34,8.34,0,0,1-4.16,6.65,12.69,12.69,0,0,1-6.83,2.12,11.23,11.23,0,0,1-6-1.75c-.19-.15-18-16.5-24.58-22a5.47,5.47,0,0,0-3.08-1.65,1.69,1.69,0,0,0-1.36.64c-1,1.28.12,3,1.48,4.19l20.83,20.94A9.9,9.9,0,0,1,239,150c.17,3.47-1.49,6.37-4.94,8.64a13.41,13.41,0,0,1-7.39,2.44,10.78,10.78,0,0,1-5.93-1.8l-3-2.95c-5.46-5.37-11.1-10.92-15.22-14.37a5.62,5.62,0,0,0-3.11-1.61,1.84,1.84,0,0,0-1.32.55c-.46.53-.79,1.47.38,3a10.05,10.05,0,0,0,1,1.17l15.2,17.08c.13.15,3.13,3.71.35,7.28l-.54.68a15,15,0,0,1-1.42,1.36,12.17,12.17,0,0,1-7.43,2.35,11.68,11.68,0,0,1-2-.17,5.07,5.07,0,0,1-3-1.27l-.18-.18c-.83-.86-8.49-8.69-14.83-14a5.25,5.25,0,0,0-3-1.57,1.78,1.78,0,0,0-1.36.61c-1.25,1.37.63,3.43,1.43,4.17l13,14.3a2.78,2.78,0,0,1-.5.87c-.46.65-2,2.22-6.73,2.81a14.06,14.06,0,0,1-1.72.1c-4.85,0-10-2.35-12.69-3.76a19.16,19.16,0,0,0,1.84-8.22,19.36,19.36,0,0,0-19.33-19.36l-.69,0c.34-4.87-.35-14.1-9.82-18.15a20.28,20.28,0,0,0-8.08-1.79,16.4,16.4,0,0,0-5.92,1.08,16.23,16.23,0,0,0-9.47-8,21.33,21.33,0,0,0-6.93-1.22,18.38,18.38,0,0,0-10.82,3.45,16.3,16.3,0,0,0-24.26-1.36c-4-3.08-20.05-13.25-62.88-23-2.08-.48-6.84-1.84-9.75-2.7a67.12,67.12,0,0,0-1.1,7s7.9,1.9,9.46,2.25c43.76,9.72,58.22,19.82,60.66,21.74a16.4,16.4,0,0,0,15.14,22.7,16.74,16.74,0,0,0,3-.27,19.14,19.14,0,0,0,12.37,14.28,16.2,16.2,0,0,0,5.85,1.13,14.83,14.83,0,0,0,3.73-.46c1.23,3.12,4,7,10.18,9.52a17.26,17.26,0,0,0,6.43,1.33,14.65,14.65,0,0,0,5-.89A19.32,19.32,0,0,0,170.36,181c3.12,1.73,9.71,4.87,16.37,4.88a21.81,21.81,0,0,0,2.47-.16c6.62-.84,9.7-3.42,11.11-5.43a7.42,7.42,0,0,0,.68-1.12,18.59,18.59,0,0,0,5.25.82,17.67,17.67,0,0,0,10.58-3.78c3.43-2.48,5.88-6,6.24-9.07a.66.66,0,0,0,0-.14,17.68,17.68,0,0,0,3.55.37,19.65,19.65,0,0,0,10.86-3.45c6.74-4.42,7.92-10.19,7.8-14a17.37,17.37,0,0,0,3.59.38,18.82,18.82,0,0,0,10.19-3.13,14.89,14.89,0,0,0,7.07-11.52,15.5,15.5,0,0,0-2.25-9.3c11.3-4.87,37.11-14.29,67.51-21.14-.19-2.35-.53-4.68-.95-7a386.49,386.49,0,0,0-71.09,23.1" fill="#2d3277"/></svg>